<svg xmlns="http://www.w3.org/2000/svg" xmlns:xlink="http://www.w3.org/1999/xlink" version="1.1" x="0px" y="0px" viewBox="1274.57 444.505 100.007 100.006" enable-background="new 1274.57 444.505 100.007 100.006" xml:space="preserve" style="max-width:100%" height="100%">
    <path fill="currentColor" d="M1348.33,486.887l-4.764-12.283c-0.888-2.354-2.833-4.352-6.511-4.372h-6.712h-11.467h-6.828  c-3.66,0.021-5.605,2.019-6.51,4.372l-4.761,12.283c-1.889,0.245-5.235,2.466-5.228,6.671v15.644h4.645v4.994  c-0.007,3.07,2.155,4.586,4.324,4.586c2.183,0,4.372-1.537,4.372-4.586v-4.994h15.682h15.64v4.994  c0.011,3.049,2.208,4.586,4.395,4.586c2.176,0,4.341-1.516,4.345-4.586v-4.994h4.645v-15.644  C1353.579,489.353,1350.233,487.132,1348.33,486.887z M1304.68,503.896c-2.225,0.004-4.026-1.851-4.017-4.131  c-0.01-2.299,1.792-4.16,4.017-4.136c2.215-0.024,4.021,1.837,4.017,4.136C1308.7,502.045,1306.895,503.899,1304.68,503.896z   M1324.573,486.771h-0.042h-18.797l3.584-11.187c0.437-1.586,1.11-2.724,2.696-2.748h12.517h0.042h12.56  c1.564,0.024,2.235,1.162,2.689,2.748l3.59,11.187H1324.573z M1344.467,503.896c-2.242,0.004-4.044-1.851-4.058-4.131  c0.014-2.299,1.815-4.16,4.058-4.136c2.201-0.024,4.003,1.837,4.017,4.136C1348.47,502.045,1346.668,503.899,1344.467,503.896z" style=""></path>
    <polygon fill="currentColor" points="1324.573,477.904 1313.896,477.904 1312.682,481.704 1324.531,481.704 1336.462,481.704   1335.243,477.904 " style=""></polygon>
    <path fill="currentColor" d="M1324.573,444.505c-27.615,0-50.003,22.388-50.003,49.999c0,27.62,22.388,50.007,50.003,50.007  c27.616,0,50.004-22.387,50.004-50.007C1374.577,466.893,1352.189,444.505,1324.573,444.505z M1358.665,509.201v5.067h-4.646  c-0.038,5.47-4.076,9.584-9.412,9.584c-5.352,0-9.406-4.107-9.462-9.584h-10.572h-10.613c-0.035,5.47-4.083,9.584-9.44,9.584  c-2.543,0-4.907-0.964-6.657-2.718c-1.753-1.76-2.724-4.197-2.734-6.866h-4.646v-5.067v-15.637  c-0.011-5.382,3.133-8.962,6.398-10.645l3.926-10.136c1.852-4.813,5.938-7.593,11.242-7.621h3.393  c0.258-2.456,2.311-4.378,4.836-4.378h8.441c2.525,0,4.578,1.922,4.836,4.378h3.501h0.015h0.014  c5.313,0.028,9.402,2.818,11.208,7.607l3.922,10.107c3.507,1.781,6.43,5.63,6.451,10.68V509.201z" style=""></path>
</svg>